<svg width="30" height="30" viewBox="0 0 30 30" fill="none" xmlns="http://www.w3.org/2000/svg">
<path fill-rule="evenodd" clip-rule="evenodd" d="M2.5 7.5C2.5 6.80964 3.05964 6.25 3.75 6.25H26.25C26.9404 6.25 27.5 6.80964 27.5 7.5C27.5 8.19036 26.9404 8.75 26.25 8.75H3.75C3.05964 8.75 2.5 8.19036 2.5 7.5ZM7.5 15C7.5 14.3096 8.05964 13.75 8.75 13.75H26.25C26.9404 13.75 27.5 14.3096 27.5 15C27.5 15.6904 26.9404 16.25 26.25 16.25H8.75C8.05964 16.25 7.5 15.6904 7.5 15ZM3.75 21.25C3.05964 21.25 2.5 21.8096 2.5 22.5C2.5 23.1904 3.05964 23.75 3.75 23.75H26.25C26.9404 23.75 27.5 23.1904 27.5 22.5C27.5 21.8096 26.9404 21.25 26.25 21.25H3.75Z" fill="#252B42"/>
</svg>
