<svg width="40" height="40" viewBox="0 0 40 40" fill="none" xmlns="http://www.w3.org/2000/svg">
<path fill-rule="evenodd" clip-rule="evenodd" d="M0 20C0 8.9543 8.9543 0 20 0C31.0457 0 40 8.9543 40 20C40 31.0457 31.0457 40 20 40C8.9543 40 0 31.0457 0 20ZM14.134 16.5645H9.60156V30.1825H14.134V16.5645ZM14.433 12.3522C14.4035 11.017 13.4487 10 11.8982 10C10.3477 10 9.33398 11.017 9.33398 12.3522C9.33398 13.6598 10.3177 14.7061 11.8393 14.7061H11.8683C13.4487 14.7061 14.433 13.6598 14.433 12.3522ZM30.4795 22.3748C30.4795 18.1919 28.2435 16.2451 25.261 16.2451C22.8545 16.2451 21.7771 17.5669 21.1756 18.4941V16.5652H16.6426C16.7023 17.8431 16.6426 30.1833 16.6426 30.1833H21.1756V22.5779C21.1756 22.1709 21.205 21.7649 21.3248 21.4735C21.6524 20.6604 22.3982 19.8185 23.6504 19.8185C25.2912 19.8185 25.9471 21.0673 25.9471 22.8973V30.183H30.4793L30.4795 22.3748Z" fill="#252B42"/>
</svg>
