<svg width="40" height="40" viewBox="0 0 40 40" fill="none" xmlns="http://www.w3.org/2000/svg">
<path fill-rule="evenodd" clip-rule="evenodd" d="M0 20C0 8.9543 8.9543 0 20 0C31.0457 0 40 8.9543 40 20C40 31.0457 31.0457 40 20 40C8.9543 40 0 31.0457 0 20ZM19.401 16.2562L19.443 16.9483L18.7435 16.8636C16.1974 16.5387 13.973 15.4371 12.0844 13.5869L11.1611 12.6689L10.9233 13.3468C10.4197 14.858 10.7414 16.454 11.7907 17.5274C12.3502 18.1205 12.2243 18.2053 11.2591 17.8522C10.9233 17.7392 10.6295 17.6545 10.6016 17.6968C10.5036 17.7957 10.8394 19.0809 11.1052 19.5894C11.4689 20.2955 12.2104 20.9876 13.0218 21.3972L13.7072 21.722L12.8958 21.7361C12.1124 21.7361 12.0844 21.7502 12.1684 22.0468C12.4482 22.9648 13.5534 23.9394 14.7844 24.3631L15.6518 24.6597L14.8964 25.1116C13.7772 25.7613 12.4622 26.1285 11.1471 26.1567C10.5176 26.1709 10 26.2273 10 26.2697C10 26.411 11.7067 27.2019 12.7 27.5126C15.6798 28.4306 19.2191 28.0351 21.8772 26.4674C23.7658 25.3517 25.6543 23.1343 26.5357 20.9876C27.0113 19.8436 27.487 17.7533 27.487 16.7506C27.487 16.1009 27.529 16.0162 28.3124 15.2394C28.774 14.7874 29.2077 14.2931 29.2916 14.1519C29.4315 13.8835 29.4175 13.8835 28.7041 14.1236C27.515 14.5473 27.3471 14.4908 27.9346 13.8553C28.3683 13.4033 28.8859 12.5842 28.8859 12.3441C28.8859 12.3017 28.6761 12.3723 28.4383 12.4994C28.1865 12.6407 27.6269 12.8525 27.2072 12.9796L26.4518 13.2197L25.7663 12.7537C25.3885 12.4994 24.8569 12.217 24.5771 12.1322C23.8637 11.9345 22.7725 11.9627 22.129 12.1887C20.3803 12.8243 19.2751 14.4626 19.401 16.2562Z" fill="#252B42"/>
</svg>
